<svg width="19" height="18" viewBox="0 0 19 18" fill="none" xmlns="http://www.w3.org/2000/svg">
<g id="delete-bin-line">
<path id="Vector" d="M13.6738 4.5H17.4238V6H15.9238V15.75C15.9238 16.1642 15.5881 16.5 15.1738 16.5H4.67383C4.25962 16.5 3.92383 16.1642 3.92383 15.75V6H2.42383V4.5H6.17383V2.25C6.17383 1.83579 6.50962 1.5 6.92383 1.5H12.9238C13.3381 1.5 13.6738 1.83579 13.6738 2.25V4.5ZM14.4238 6H5.42383V15H14.4238V6ZM7.67383 8.25H9.17383V12.75H7.67383V8.25ZM10.6738 8.25H12.1738V12.75H10.6738V8.25ZM7.67383 3V4.5H12.1738V3H7.67383Z" fill="#B1B5B8"/>
</g>
</svg>
