<svg width="16" height="16" viewBox="0 0 16 16" fill="none" xmlns="http://www.w3.org/2000/svg">
<g id="Frame" clip-path="url(#clip0_222_1102)">
<path id="Vector" d="M14 5.278V7.96733C12.7907 7.84736 11.6376 7.39743 10.6667 6.66667V9.66667C10.6665 10.4808 10.437 11.2783 10.0045 11.968C9.57194 12.6577 8.95388 13.2116 8.22111 13.5662C7.48833 13.9209 6.67047 14.0619 5.86123 13.9732C5.05199 13.8846 4.2841 13.5697 3.64554 13.0648C3.00697 12.5598 2.52356 11.8852 2.25068 11.1182C1.97781 10.3512 1.92651 9.52286 2.10266 8.72806C2.27881 7.93326 2.67529 7.20416 3.24667 6.62428C3.81805 6.0444 4.54122 5.6372 5.33333 5.44933V8.33333C5.10606 8.50379 4.92613 8.72951 4.81063 8.98907C4.69513 9.24862 4.64789 9.5334 4.6734 9.81634C4.69892 10.0993 4.79633 10.371 4.9564 10.6057C5.11647 10.8404 5.33388 11.0303 5.58798 11.1574C5.84208 11.2844 6.12444 11.3444 6.40825 11.3316C6.69206 11.3189 6.96789 11.2338 7.20955 11.0844C7.45122 10.9351 7.65069 10.7264 7.78904 10.4783C7.92738 10.2301 8 9.95076 8 9.66667V2H10.722C10.8608 2.81894 11.2509 3.57442 11.8383 4.16175C12.4256 4.74909 13.1811 5.13919 14 5.278Z" stroke="black" stroke-linecap="round" stroke-linejoin="round"/>
</g>
<defs>
<clipPath id="clip0_222_1102">
<rect width="16" height="16" fill="white"/>
</clipPath>
</defs>
</svg>
