<svg width="16" height="16" viewBox="0 0 16 16" fill="none" xmlns="http://www.w3.org/2000/svg">
<g id="Frame" clip-path="url(#clip0_222_1095)">
<path id="Vector" d="M2.66669 5.33366C2.66669 4.62641 2.94764 3.94814 3.44774 3.44804C3.94783 2.94794 4.62611 2.66699 5.33335 2.66699H10.6667C11.3739 2.66699 12.0522 2.94794 12.5523 3.44804C13.0524 3.94814 13.3334 4.62641 13.3334 5.33366V10.667C13.3334 11.3742 13.0524 12.0525 12.5523 12.5526C12.0522 13.0527 11.3739 13.3337 10.6667 13.3337H5.33335C4.62611 13.3337 3.94783 13.0527 3.44774 12.5526C2.94764 12.0525 2.66669 11.3742 2.66669 10.667V5.33366Z" stroke="black" stroke-linecap="round" stroke-linejoin="round"/>
<path id="Vector_2" d="M6 8C6 8.53043 6.21071 9.03914 6.58579 9.41421C6.96086 9.78929 7.46957 10 8 10C8.53043 10 9.03914 9.78929 9.41421 9.41421C9.78929 9.03914 10 8.53043 10 8C10 7.46957 9.78929 6.96086 9.41421 6.58579C9.03914 6.21071 8.53043 6 8 6C7.46957 6 6.96086 6.21071 6.58579 6.58579C6.21071 6.96086 6 7.46957 6 8Z" stroke="black" stroke-linecap="round" stroke-linejoin="round"/>
<path id="Vector_3" d="M11 5V5.00667" stroke="black" stroke-linecap="round" stroke-linejoin="round"/>
</g>
<defs>
<clipPath id="clip0_222_1095">
<rect width="16" height="16" fill="white"/>
</clipPath>
</defs>
</svg>
